<svg xmlns="http://www.w3.org/2000/svg" width="500" height="500" viewBox="0 0 196 196" preserveAspectRatio="xMidYMid meet">
  <rect width="100%" height="100%" fill="transparent"></rect>
  <rect width="125.289" height="125.289" x="-62.644" y="-62.644" fill="#0074d9" rx="29" ry="29" transform="translate(98 98)scale(1.5295)"></rect>
  <circle r="7" fill="#fff" transform="translate(49.678 97.193)scale(1.6464)"></circle>
  <circle r="7" fill="#fff" transform="translate(144.61 97.193)scale(1.6464)"></circle>
  <path fill="#fff" d="M178.575 95.777a34.015 34.015 0 0 0-47.746-29.685h-.033c-9.005 4.512-20.003 8.66-32.829 8.66-12.776 0-24.877-3.26-34.08-8.627l-.247.05A34.015 34.015 0 0 0 15.73 95.81a13.171 13.171 0 0 0 0 2.75 34.015 34.015 0 0 0 46.28 30.31l.066.016.28-.132a34.574 34.574 0 0 0 3.984-1.91c8.446-4.033 18.143-8.314 29.503-8.314 12.447 0 23.215 3.902 32.27 8.43l1.317.658 1.152.593h.066a34.015 34.015 0 0 0 47.91-29.635 14.818 14.818 0 0 0 0-2.799m-128.88 24.498c-12.73 0-23.05-10.32-23.05-23.05s10.32-23.049 23.05-23.049 23.05 10.32 23.05 23.05-10.32 23.05-23.05 23.05m94.932 0c-12.73 0-23.05-10.32-23.05-23.05s10.32-23.05 23.05-23.05 23.05 10.32 23.05 23.05-10.32 23.05-23.05 23.05"></path>
</svg>